HIERARCHY
ROOT ui
{
	 OFFSET 0 0 0
	 CHANNELS 3 XPosition YPosition Z Position
	 EndSite
	 {
	 OFFSET 0 -1 0
	 }
}
ROOT li
{
	 OFFSET 0 0 0
	 CHANNELS 3 XPosition YPosition Z Position
	 EndSite
	 {
	 OFFSET 0 -1 0
	 }
}
ROOT ul
{
	 OFFSET 0 0 0
	 CHANNELS 3 XPosition YPosition Z Position
	 EndSite
	 {
	 OFFSET 0 -1 0
	 }
}
ROOT ll
{
	 OFFSET 0 0 0
	 CHANNELS 3 XPosition YPosition Z Position
	 EndSite
	 {
	 OFFSET 0 -1 0
	 }
}
ROOT tt
{
	 OFFSET 0 0 0
	 CHANNELS 3 XPosition YPosition Z Position
	 EndSite
	 {
	 OFFSET 0 -1 0
	 }
}
ROOT tb
{
	 OFFSET 0 0 0
	 CHANNELS 3 XPosition YPosition Z Position
	 EndSite
	 {
	 OFFSET 0 -1 0
	 }
}
ROOT td
{
	 OFFSET 0 0 0
	 CHANNELS 3 XPosition YPosition Z Position
	 EndSite
	 {
	 OFFSET 0 -1 0
	 }
}
ROOT v
{
	 OFFSET 0 0 0
	 CHANNELS 3 XPosition YPosition Z Position
	 EndSite
	 {
	 OFFSET 0 -1 0
	 }
}
ROOT bn
{
	 OFFSET 0 0 0
	 CHANNELS 3 XPosition YPosition Z Position
	 EndSite
	 {
	 OFFSET 0 -1 0
	 }
}
MOTION
Frames: 16
Frame Time: 0.002
-0.00494202184677124	0.0033994600772857667	0		0.5322175903320312	-2.450720458984375	0		-0.9862518310546875	0.057759468078613284	0		-0.5192498168945312	-2.543349853515625	0		1.86586083984375	-0.6390346069335937	0		3.386121337890625	-0.42724966430664063	0		4.5253056640625	-0.2178907928466797	0		5.9351611328125	0.4455574035644531	0		-0.20884230041503907	5.89101171875	0		
-0.008623479843139648	-6.443920135498046E-4	0		0.5057089233398437	-2.447414306640625	0		-1.0459580078125	0.05250617599487305	0		-0.5856494750976563	-2.53248974609375	0		1.8656787109375	-0.6100738525390625	0		3.3926552734375	-0.41734689331054686	0		4.51263134765625	-0.221677490234375	0		5.93352587890625	0.44564883422851564	0		-0.2096291198730469	5.89091796875	0		
-0.009215024948120118	-7.387369871139527E-4	0		0.5601365356445313	-2.45129541015625	0		-0.97155908203125	0.05128981781005859	0		-0.5570418701171875	-2.52402392578125	0		1.8693662109375	-0.5921757202148438	0		3.357210205078125	-0.4078366394042969	0		4.5120458984375	-0.22164485168457032	0		5.92492236328125	0.4458379516601563	0		-0.07805042266845703	5.91289208984375	0		
-0.035738468170166016	5.378069877624512E-4	0		0.5077733764648438	-2.443625	0		-1.0339346923828125	0.06306126403808594	0		-0.589405029296875	-2.51667626953125	0		1.836180419921875	-0.568745849609375	0		3.36075341796875	-0.4029002990722656	0		4.4954404296875	-0.22638346862792968	0		5.93312060546875	0.42877752685546877	0		-0.21011042785644532	5.8896962890625	0		
0.07473797607421875	-0.00418311882019043	0		0.5404456176757813	-2.43919873046875	0		-1.0044515991210938	0.05948675537109375	0		-0.5687584228515625	-2.51410791015625	0		1.832033935546875	-0.5477454833984375	0		3.3613984375	-0.3959263916015625	0		4.48806689453125	-0.22026016235351562	0		5.94187109375	0.44470962524414065	0		-0.07646035766601562	5.90863427734375	0		
-0.007541114807128906	0.0028884260654449463	0		0.51724658203125	-2.43196826171875	0		-0.9898006591796875	0.061121944427490235	0		-0.575884521484375	-2.502142333984375	0		1.844108642578125	-0.5179862060546875	0		3.346051513671875	-0.39472796630859375	0		4.485640625	-0.22421630859375	0		5.9314990234375	0.4459116516113281	0		-0.19811231994628906	5.902267578125	0		
0.06611360931396484	-0.003307682991027832	0		0.5419769287109375	-2.43744091796875	0		-0.98601025390625	0.0649083251953125	0		-0.5760772705078125	-2.50228564453125	0		1.818962158203125	-0.5106988525390626	0		3.31988720703125	-0.3883825378417969	0		4.470296875	-0.2299956512451172	0		5.9270908203125	0.4370155029296875	0		-0.21272044372558593	5.8903388671875	0		
-0.036993419647216794	4.412199929356575E-5	0		0.51494384765625	-2.43417236328125	0		-0.9711314086914062	0.06652851867675781	0		-0.5741259765625	-2.500466552734375	0		1.825146484375	-0.48887319946289065	0		3.33460546875	-0.398641845703125	0		4.462984375	-0.24190545654296874	0		5.91794775390625	0.43817352294921874	0		-0.213015869140625	5.89119677734375	0		
0.06289938354492187	-0.006541430950164795	0		0.5170106201171875	-2.4323330078125	0		-0.9571162109375	0.06915650939941406	0		-0.6049820556640625	-2.4931806640625	0		1.8122652587890624	-0.47978457641601563	0		3.308679931640625	-0.3923266296386719	0		4.4509814453125	-0.24076213073730468	0		5.92689599609375	0.43705230712890625	0		-0.21319320678710937	5.89104638671875	0		
-0.007882024765014648	0.0023267199993133544	0		0.4962963256835938	-2.423173095703125	0		-1.00798779296875	0.07171338653564453	0		-0.5987264404296875	-2.486435302734375	0		1.809516845703125	-0.4698526000976562	0		3.31185693359375	-0.3874446716308594	0		4.44619873046875	-0.23273822021484375	0		5.92698193359375	0.43704034423828125	0		-0.19908097839355468	5.901685546875	0		
0.06930638885498047	6.0589998960495E-5	0		0.5156871948242188	-2.4145966796875	0		-0.9946220092773438	0.08234297943115235	0		-0.6323861083984375	-2.48112158203125	0		1.7940123291015626	-0.4507460021972656	0		3.30002001953125	-0.3913603515625	0		4.43621435546875	-0.24665679931640624	0		5.9233125	0.4460655822753906	0		-0.08083892822265625	5.9118251953125	0		
-0.007358981132507324	0.001999145984649658	0		0.507162841796875	-2.406624755859375	0		-0.9833267211914063	0.0809991455078125	0		-0.5818722534179688	-2.4710185546875	0		1.7618817138671874	-0.41240802001953125	0		3.309310546875	-0.3935906677246094	0		4.4293603515625	-0.2586343078613281	0		5.9236162109375	0.4460158386230469	0		-0.2480131072998047	5.88705419921875	0		
-0.010021422386169434	-0.002129045009613037	0		0.5075993347167969	-2.406787353515625	0		-0.978876708984375	0.08475290679931641	0		-0.61740234375	-2.468684814453125	0		1.762283447265625	-0.4125487670898437	0		3.268802001953125	-0.3871180114746094	0		4.41777490234375	-0.25755685424804686	0		5.9240029296875	0.44594757080078123	0		-0.2136386413574219	5.89239111328125	0		
-0.03554947662353516	-9.32561993598938E-4	0		0.5080903930664062	-2.406954833984375	0		-1.0023776245117189	0.08790603637695313	0		-0.6019547729492187	-2.47208349609375	0		1.7427467041015625	-0.41241140747070315	0		3.280047119140625	-0.40239993286132814	0		4.40803466796875	-0.27152127075195315	0		5.928322265625	0.4368050231933594	0		-0.24636888122558595	5.88568505859375	0		
-0.006013359069824219	0.0014745110273361205	0		0.5147171020507812	-2.400212646484375	0		-1.0108101806640626	0.09284346771240234	0		-0.6292665405273438	-2.460869873046875	0		1.7463050537109375	-0.4086098937988281	0		3.28473388671875	-0.38959375	0		4.41261962890625	-0.26569979858398435	0		5.92494140625	0.4457601623535156	0		-0.1967393798828125	5.899802734375	0		
-0.0054905438423156734	0.0012954299449920654	0		0.5172959594726563	-2.398414306640625	0		-0.9790916748046875	0.10620872497558594	0		-0.5907335205078125	-2.462598876953125	0		1.7468326416015625	-0.408768798828125	0		3.282190185546875	-0.3946915893554688	0		4.40906005859375	-0.271770263671875	0		5.92545947265625	0.44564935302734376	0		-0.08009638977050781	5.91196337890625	0		
